# xmcd CD database file
#
# Track frame offsets:
#	150
#	22115
#	45220
#	61807
#	85500
#	105930
#	121080
#	142310
#
# Disc length: 2244 seconds
#
# Revision: 0
# Processed by: cddbd v1.5.2PL0 Copyright (c) Steve Scherf et al.
# Submitted via: CDex 1.70beta2
#
DISCID=5a08c208
DTITLE=LUIS PERICO ORTIZ and FRINDS - At Valley Cottage
DYEAR=1990
DGENRE=Salsa
TTITLE0=This Night Won't Last Forever
TTITLE1=On And On
TTITLE2=Starlite
TTITLE3=Saquenlo De Ahi
TTITLE4=Without You
TTITLE5=Perico
TTITLE6=At Last
TTITLE7=Umbara Umbaquin
EXTD=YEAR: 1990
EXTT0=
EXTT1=
EXTT2=
EXTT3=
EXTT4=
EXTT5=
EXTT6=
EXTT7=
PLAYORDER=
